# xmcd
#
# Track frame offsets:
#	150
#	10565
#	22262
#	37797
#	51700
#	65332
#	80335
#	94635
#	110452
#	122975
#	136510
#	148935
#
# Disc length: 2164 seconds
#
# Revision: 0
# Processed by: cddbd v1.5.1PL0 Copyright (c) Steve Scherf et al.
# Submitted via: EasyCDDAExtractor 8.2.1.1
#
DISCID=9d08720c
DTITLE=Various Artist - The Roots Of Blues
DYEAR=1937
DGENRE=Blues
TTITLE0=Robert Johnson - Stop Breakin' Down Blues
TTITLE1=Brownie McGhee - Million Lonesome Women
TTITLE2=Bessie Smith - Careless Love
TTITLE3=Mamie Smith - Goin' Crazy With The Blues
TTITLE4=Blind Lemon Jefferson - Black Snake Moan
TTITLE5=Ma Rainey - Black Eye Blues
TTITLE6=Roosevelt Sykes - Ten And Four Blues
TTITLE7=Leroy Carr - Blues Before Sunrise
TTITLE8=Lonnie Johnson - Flood Water Blues
TTITLE9=Meade "Lux" Lewis - Honky Tonk Train Blues
TTITLE10=Georgia White - Dead Man Blues
TTITLE11=Josh White - Froggy Bottom
EXTD=
EXTT0=
EXTT1=
EXTT2=
EXTT3=
EXTT4=
EXTT5=
EXTT6=
EXTT7=
EXTT8=
EXTT9=
EXTT10=
EXTT11=
PLAYORDER=
